<svg width="51" height="53" viewBox="0 0 51 53" fill="none" xmlns="http://www.w3.org/2000/svg">
<path d="M49.3421 6.78229L43.2922 0.732414C43.0601 0.500218 42.7846 0.316023 42.4813 0.190353C42.178 0.0646829 41.8529 0 41.5246 0C41.1964 0 40.8713 0.0646829 40.568 0.190353C40.2647 0.316023 39.9892 0.500218 39.7571 0.732414L28.3069 12.1826C27.838 12.6514 27.5746 13.2871 27.5744 13.9501V20C27.5744 20.663 27.8378 21.2989 28.3066 21.7677C28.7755 22.2366 29.4113 22.5 30.0744 22.5H36.1255C36.7885 22.4998 37.4242 22.2364 37.893 21.7675L49.3421 10.3173C49.5742 10.0852 49.7584 9.80967 49.8841 9.50639C50.0097 9.20312 50.0744 8.87806 50.0744 8.54979C50.0744 8.22151 50.0097 7.89646 49.8841 7.59318C49.7584 7.28991 49.5742 7.01437 49.3421 6.78229ZM35.0903 17.5H32.5745V14.9854L41.5246 6.03516L44.0393 8.54979L35.0903 17.5ZM42.5 24.9048C41.837 24.9048 41.2011 25.1682 40.7322 25.637C40.2634 26.1059 40 26.7417 40 27.4048V33.3838L36.2988 29.6826C34.9957 28.382 33.2297 27.6515 31.3885 27.6515C29.5474 27.6515 27.7814 28.382 26.4783 29.6826L24.7333 31.4276L18.5181 25.2123C17.2164 23.9126 15.4521 23.1826 13.6127 23.1826C11.7732 23.1826 10.0089 23.9126 8.70728 25.2123L5 28.9198V14.9048C5.00086 14.242 5.26453 13.6066 5.73318 13.138C6.20184 12.6693 6.83722 12.4056 7.5 12.4048H22.5C23.163 12.4048 23.7989 12.1414 24.2678 11.6726C24.7366 11.2037 25 10.5678 25 9.90479C25 9.24175 24.7366 8.60586 24.2678 8.13702C23.7989 7.66818 23.163 7.40479 22.5 7.40479H7.5C5.51154 7.40696 3.60515 8.19783 2.1991 9.60389C0.793044 11.0099 0.00217049 12.9163 0 14.9048V44.9048C0.00217049 46.8932 0.793044 48.7996 2.1991 50.2057C3.60515 51.6117 5.51154 52.4026 7.5 52.4048H37.5C39.4885 52.4026 41.3949 51.6117 42.8009 50.2057C44.207 48.7996 44.9978 46.8932 45 44.9048V27.4048C45 26.7417 44.7366 26.1059 44.2678 25.637C43.7989 25.1682 43.163 24.9048 42.5 24.9048ZM7.5 47.4048C6.83722 47.4039 6.20184 47.1403 5.73318 46.6716C5.26453 46.203 5.00086 45.5676 5 44.9048V35.99L12.2425 28.7475C12.6132 28.3982 13.1034 28.2037 13.6127 28.2037C14.1221 28.2037 14.6122 28.3982 14.983 28.7475L22.903 36.6653C22.9242 36.6882 22.932 36.7197 22.9541 36.7419L33.6178 47.4048H7.5ZM40 44.9048C39.9876 45.3868 39.832 45.8542 39.5531 46.2474L28.2684 34.9628L30.0134 33.2178C30.3787 32.8542 30.8732 32.6501 31.3885 32.6501C31.9039 32.6501 32.3984 32.8542 32.7637 33.2178L40 40.4541V44.9048Z" fill="black"/>
</svg>
