<svg width="30" height="27" viewBox="0 0 30 27" fill="none" xmlns="http://www.w3.org/2000/svg">
<path d="M15 1C14.6951 1.00002 14.4022 1.10664 14.1842 1.29704L1.45801 10.5907C1.44331 10.6005 1.42887 10.6107 1.41471 10.6212L1.37142 10.6537V10.6558C1.25441 10.7531 1.16105 10.8709 1.09716 11.0018C1.03327 11.1327 1.00019 11.2739 1 11.4167C1 11.6929 1.12292 11.9579 1.34171 12.1532C1.5605 12.3486 1.85725 12.4583 2.16667 12.4583H3.33333V23.9167C3.33333 25.0677 4.3775 26 5.66667 26H24.3333C25.6225 26 26.6667 25.0677 26.6667 23.9167V12.4583H27.8333C28.1428 12.4583 28.4395 12.3486 28.6583 12.1532C28.8771 11.9579 29 11.6929 29 11.4167C29.0001 11.2735 28.9672 11.1319 28.9033 11.0007C28.8394 10.8694 28.7459 10.7513 28.6286 10.6537L28.6104 10.6415C28.5848 10.6208 28.5581 10.6011 28.5306 10.5825L26.6667 9.22144V5.16667C26.6667 4.59167 26.144 4.125 25.5 4.125H24.3333C23.6893 4.125 23.1667 4.59167 23.1667 5.16667V6.6661L15.7907 1.27873C15.5758 1.10034 15.2934 1.00082 15 1ZM18.5 14.5417H23.1667V22.875H18.5V14.5417Z" fill="#445638"/>
<path d="M15.3501 6.26955C15.129 6.26957 14.9167 6.34012 14.7587 6.46612L5.53217 12.6163C5.52151 12.6228 5.51105 12.6296 5.50078 12.6365L5.46939 12.658V12.6594C5.38456 12.7238 5.31688 12.8017 5.27056 12.8884C5.22423 12.975 5.20026 13.0684 5.20011 13.1629C5.20011 13.3458 5.28923 13.5211 5.44785 13.6504C5.60648 13.7796 5.82162 13.8523 6.04595 13.8523H6.89178V21.435C6.89178 22.1967 7.6488 22.8137 8.58345 22.8137H22.1168C23.0514 22.8137 23.8084 22.1967 23.8084 21.435V13.8523H24.6543C24.8786 13.8523 25.0937 13.7796 25.2524 13.6504C25.411 13.5211 25.5001 13.3458 25.5001 13.1629C25.5002 13.0682 25.4763 12.9745 25.43 12.8876C25.3837 12.8008 25.3159 12.7226 25.2308 12.658L25.2176 12.65C25.1991 12.6363 25.1798 12.6232 25.1598 12.6109L23.8084 11.7102V9.02691C23.8084 8.64639 23.4295 8.33757 22.9626 8.33757H22.1168C21.6499 8.33757 21.2709 8.64639 21.2709 9.02691V10.0192L15.9234 6.45401C15.7675 6.33596 15.5629 6.2701 15.3501 6.26955ZM17.8876 15.231H21.2709V20.7457H17.8876V15.231Z" fill="#F7F7F7"/>
<path d="M15 0.55L15.0013 0.55C15.3884 0.551081 15.7685 0.680335 16.0664 0.922873L22.7167 5.78017V5.16667C22.7167 4.29654 23.4901 3.675 24.3333 3.675H25.5C26.3432 3.675 27.1167 4.29654 27.1167 5.16667V8.99283L28.7899 10.2146C28.8194 10.2348 28.8482 10.2559 28.8762 10.278L28.879 10.2798L28.8984 10.2928L28.9163 10.3078C29.0805 10.4443 29.2148 10.6124 29.3079 10.8037C29.4011 10.9952 29.4502 11.2041 29.45 11.417M15 0.55L29 11.4167M15 0.55C14.5997 0.550023 14.2069 0.687098 13.9043 0.94423M15 0.55L13.9043 0.94423M29.45 11.417L29 11.4167M29.45 11.417C29.45 11.4169 29.45 11.4168 29.45 11.4167H29M29.45 11.417C29.4499 11.83 29.2657 12.2142 28.958 12.4889C28.6519 12.7622 28.2467 12.9083 27.8333 12.9083H27.1167M29 11.4167C29 11.6929 28.8771 11.9579 28.6583 12.1532C28.4395 12.3486 28.1428 12.4583 27.8333 12.4583H27.1167V12.9083M27.1167 12.9083H26.6667V23.9167C26.6667 25.0677 25.6225 26 24.3333 26H5.66667C4.3775 26 3.33333 25.0677 3.33333 23.9167V12.9083H2.88333M27.1167 12.9083V23.9167C27.1167 25.3628 25.8217 26.45 24.3333 26.45H5.66667C4.17828 26.45 2.88333 25.3628 2.88333 23.9167V12.9083M2.88333 12.9083V12.4583H2.16667C1.85725 12.4583 1.5605 12.3486 1.34171 12.1532C1.12292 11.9579 1 11.6929 1 11.4167C1.00019 11.2739 1.03327 11.1327 1.09716 11.0018C1.16105 10.8709 1.25441 10.7531 1.37142 10.6558M2.88333 12.9083H2.16667C1.75333 12.9083 1.34808 12.7622 1.042 12.4889C0.734256 12.2141 0.55 11.8298 0.55 11.4167V11.4161C0.55029 11.2037 0.599577 10.9953 0.692766 10.8044C0.752892 10.6812 0.830134 10.5676 0.921419 10.4659M0.921419 10.4659V10.6537V10.6558H1.37142M0.921419 10.4659V10.4291L1.10099 10.2941L1.14428 10.2615L1.14707 10.2594L1.14708 10.2594C1.16421 10.2467 1.18159 10.2344 1.19922 10.2224L13.9043 0.94423M0.921419 10.4659C0.971448 10.4102 1.02569 10.358 1.08365 10.3098L1.36973 10.6537L1.37142 10.6558M1.37142 10.6558V10.6537L1.41471 10.6212M1.41471 10.6212C1.42887 10.6107 1.44331 10.6005 1.45801 10.5907L14.1842 1.29704M1.41471 10.6212L22.7167 6.33742L15.7907 1.27873C15.5758 1.10034 15.2934 1.00082 15 1C14.6951 1.00002 14.4022 1.10664 14.1842 1.29704M1.41471 10.6212L13.9043 0.94423M14.1842 1.29704L13.9189 0.933626L13.9043 0.94423M14.1842 1.29704L13.8882 0.958113C13.8936 0.953448 13.8989 0.94882 13.9043 0.94423M28.6286 10.6537L28.6104 10.6415C28.5848 10.6208 28.5581 10.6011 28.5306 10.5825L28.6286 10.6537ZM20.8209 20.2957H18.95V15.681H20.8209V20.2957Z" stroke="black" stroke-opacity="0.3" stroke-width="0.9"/>
</svg>
