<svg width="144" height="108" viewBox="0 0 144 108" fill="none" xmlns="http://www.w3.org/2000/svg">
<path d="M7.63294 0.0363263C5.25892 0.416169 3.13303 1.72353 1.72293 3.6708C0.312837 5.61808 -0.265953 8.04575 0.11389 10.4198C0.493733 12.7938 1.80109 14.9197 3.74837 16.3298C5.69564 17.7399 8.12332 18.3187 10.4973 17.9388H37.3511L38.9623 22.4144L46.3023 44.7926L53.6423 67.1707C54.3584 69.498 57.4019 71.6463 59.7292 71.6463H122.388C124.894 71.6463 127.759 69.498 128.475 67.1707L142.976 22.4144C143.692 20.0871 142.618 17.9388 140.111 17.9388H60.6243L53.8214 5.04902C53.0968 3.56955 51.978 2.31873 50.5882 1.43429C49.1983 0.549851 47.5914 0.0661073 45.9443 0.0363263L10.1393 0.0363263C9.6033 -0.0121088 9.06404 -0.0121088 8.52806 0.0363263C8.17033 0.0148239 7.81164 0.0148239 7.45391 0.0363263L7.63294 0.0363263ZM64.2048 89.5488C59.1921 89.5488 55.2536 93.4873 55.2536 98.5C55.2536 103.513 59.1921 107.451 64.2048 107.451C69.2175 107.451 73.1561 103.513 73.1561 98.5C73.1561 93.4873 69.2175 89.5488 64.2048 89.5488ZM117.912 89.5488C112.9 89.5488 108.961 93.4873 108.961 98.5C108.961 103.513 112.9 107.451 117.912 107.451C122.925 107.451 126.864 103.513 126.864 98.5C126.864 93.4873 122.925 89.5488 117.912 89.5488Z" fill="black"/>
</svg>
